<?xml version="1.0" encoding="UTF-8" standalone="no"?>
<svg width="15px" height="15px" viewBox="0 0 15 15" version="1.1" xmlns="http://www.w3.org/2000/svg" xmlns:xlink="http://www.w3.org/1999/xlink">
    <!-- Generator: Sketch 3.7.1 (28215) - http://www.bohemiancoding.com/sketch -->
    <title>github</title>
    <desc>Created with Sketch.</desc>
    <defs></defs>
    <g id="Page-1" stroke="none" stroke-width="1" fill="none" fill-rule="evenodd">
        <g id="github" fill="#FFFFFF">
            <path d="M7.49930937,0 C3.35829829,0 0,3.44281538 0,7.6900401 C0,11.0875366 2.14877682,13.9695314 5.12907087,14.9863728 C5.50431259,15.0571835 5.64105712,14.8197317 5.64105712,14.6157969 C5.64105712,14.4331053 5.63461125,13.9497044 5.6309279,13.3081596 C3.5447681,13.7726777 3.10460726,12.2771561 3.10460726,12.2771561 C2.76343657,11.3887181 2.27170877,11.1522104 2.27170877,11.1522104 C1.59074864,10.6754185 2.32327573,10.6848599 2.32327573,10.6848599 C3.07606127,10.7391481 3.47202185,11.4774675 3.47202185,11.4774675 C4.14101108,12.6524527 5.2276006,12.3130335 5.6548697,12.1161798 C5.72301176,11.6195609 5.91684828,11.2806138 6.13094325,11.0884808 C4.46560668,10.8944595 2.71463212,10.234504 2.71463212,7.28783543 C2.71463212,6.44849281 3.00699837,5.76162919 3.48675527,5.22441214 C3.40940483,5.0299188 3.15203045,4.2476968 3.56042236,3.18931313 C3.56042236,3.18931313 4.18981553,2.98254594 5.62264035,3.97767206 C6.22072501,3.80678228 6.8625495,3.72180946 7.50023021,3.71850497 C8.1374505,3.72180946 8.77881457,3.80678228 9.37782007,3.97767206 C10.8097241,2.98254594 11.4381964,3.18931313 11.4381964,3.18931313 C11.8475091,4.2476968 11.5901347,5.0299188 11.5132447,5.22441214 C11.9939225,5.76162919 12.2839866,6.44849281 12.2839866,7.28783543 C12.2839866,10.2420571 10.5302495,10.8920992 8.85984837,11.0823439 C9.12873323,11.3197957 9.36861168,11.7890345 9.36861168,12.5061106 C9.36861168,13.5342818 9.3594033,14.3637109 9.3594033,14.6157969 C9.3594033,14.82162 9.49476657,15.0609601 9.8750729,14.9859007 C12.8530649,13.966699 15,11.0865925 15,7.6900401 C15,3.44281538 11.6417017,0 7.49930937,0" id="Fill-50"></path>
        </g>
    </g>
</svg>