<?xml version="1.0" encoding="UTF-8" standalone="no"?>
<svg width="15px" height="15px" viewBox="0 0 15 15" version="1.1" xmlns="http://www.w3.org/2000/svg" xmlns:xlink="http://www.w3.org/1999/xlink">
    <!-- Generator: Sketch 3.7.1 (28215) - http://www.bohemiancoding.com/sketch -->
    <title>linkedin</title>
    <desc>Created with Sketch.</desc>
    <defs></defs>
    <g id="Page-1" stroke="none" stroke-width="1" fill="none" fill-rule="evenodd">
        <g id="linkedin" fill="#FFFFFF">
            <g id="Group-2">
                <path d="M7.5,15 C11.6421356,15 15,11.6421356 15,7.5 C15,3.35786438 11.6421356,0 7.5,0 C3.35786438,0 0,3.35786438 0,7.5 C0,11.6421356 3.35786438,15 7.5,15 Z M4.60759567,3.73761756 C5.12297447,3.73761756 5.54192106,4.15676547 5.54192106,4.67234559 C5.54192106,5.18852967 5.12297447,5.60747627 4.60759567,5.60747627 C4.09060631,5.60747627 3.67286763,5.18852967 3.67286763,4.67234559 C3.67286763,4.15676547 4.09060631,3.73761756 4.60759567,3.73761756 Z M3.80090705,11.5045371 L5.41408296,11.5045371 L5.41408296,6.31672607 L3.80090705,6.31672607 L3.80090705,11.5045371 Z M6.12452339,6.31852065 L7.67146507,6.31852065 L7.67146507,7.02736782 L7.69340893,7.02736782 C7.90861984,6.61949382 8.43486991,6.18927331 9.21921202,6.18927331 C10.8509094,6.18927331 11.1522852,7.263516 11.1522852,8.66087703 L11.1522852,11.506533 L9.54172641,11.506533 L9.54172641,8.98359274 C9.54172641,8.38184773 9.52984854,7.60797425 8.7036319,7.60797425 C7.8645308,7.60797425 7.73649138,8.26327034 7.73649138,8.94030898 L7.73649138,11.506533 L6.12452339,11.506533 L6.12452339,6.31852065 Z" id="Combined-Shape"></path>
            </g>
        </g>
    </g>
</svg>