<?xml version="1.0" encoding="UTF-8" standalone="no"?>
<svg width="15px" height="15px" viewBox="0 0 15 15" version="1.1" xmlns="http://www.w3.org/2000/svg" xmlns:xlink="http://www.w3.org/1999/xlink">
    <!-- Generator: Sketch 3.7.1 (28215) - http://www.bohemiancoding.com/sketch -->
    <title>twitter</title>
    <desc>Created with Sketch.</desc>
    <defs>
        <path d="M7.5,15 C11.6421356,15 15,11.6421356 15,7.5 C15,3.35786438 11.6421356,0 7.5,0 C3.35786438,0 0,3.35786438 0,7.5 C0,11.6421356 3.35786438,15 7.5,15 Z M11.0573174,5.26503974 C11.3962032,5.015078 11.6564322,4.61928724 11.7789824,4.14770139 C11.4618677,4.37911944 11.1106039,4.54720089 10.7367497,4.63779492 C10.4373386,4.24528081 10.0107831,4 9.5387249,4 C8.63226892,4 7.89737737,4.90424795 7.89737737,6.01956989 C7.89737737,6.17785739 7.9119207,6.33200407 7.93989539,6.47981348 C6.57580745,6.39559272 5.36642891,5.59155272 4.55691869,4.36968557 C4.41564066,4.66796893 4.33470134,5.01489796 4.33470134,5.38501562 C4.33470134,6.08567905 4.62448517,6.70385007 5.06488167,7.06601014 C4.7958155,7.05553205 4.54275577,6.96468597 4.32144555,6.81341987 C4.32132851,6.82184555 4.32132851,6.83030723 4.32132851,6.83880492 C4.32132851,7.81733565 4.88708438,8.63361809 5.63792385,8.81912701 C5.50018655,8.86528819 5.35519222,8.8899531 5.20548667,8.8899531 C5.09973298,8.8899531 4.99690552,8.87731459 4.89671166,8.85372989 C5.10555617,9.65611357 5.71169392,10.2400058 6.429906,10.256317 C5.8681883,10.7979728 5.16048136,11.120849 4.39152859,11.120849 C4.25905849,11.120849 4.12840265,11.1113072 4,11.0926554 C4.72634698,11.6656735 5.58908519,12 6.5159662,12 C9.53489155,12 11.1857493,8.92257559 11.1857493,6.2537605 C11.1857493,6.16619107 11.1841691,6.07908974 11.1810088,5.99249251 C11.5016643,5.70774784 11.7799481,5.35203305 12,4.94702446 C11.7056513,5.10765242 11.3893266,5.21621403 11.0573174,5.26503974 Z" id="path-1"></path>
    </defs>
    <g id="Page-1" stroke="none" stroke-width="1" fill="none" fill-rule="evenodd">
        <g id="twitter">
            <mask id="mask-2" fill="white">
                <use xlink:href="#path-1"></use>
            </mask>
            <use id="Combined-Shape" fill="#FFFFFF" xlink:href="#path-1"></use>
        </g>
    </g>
</svg>