<?xml version="1.0" encoding="UTF-8"?>
<svg width="32px" height="32px" viewBox="0 0 32 32" version="1.1" xmlns="http://www.w3.org/2000/svg" xmlns:xlink="http://www.w3.org/1999/xlink">
    <!-- Generator: Sketch 50.2 (55047) - http://www.bohemiancoding.com/sketch -->
    <title>Twitter</title>
    <desc>Created with Sketch.</desc>
    <defs></defs>
    <g id="Twitter" stroke="none" stroke-width="1" fill="none" fill-rule="evenodd">
        <path d="M11.3531413,26.1681314 C20.7869148,26.1681314 25.9489796,18.3450022 25.9489796,11.5722931 C25.9489796,11.352205 25.9489796,11.132117 25.9389756,10.912029 C26.9393758,10.1917408 27.8097239,9.2813767 28.5,8.25096454 C27.5796319,8.6611286 26.5892357,8.93123665 25.5488195,9.06128867 C26.6092437,8.43103657 27.4195678,7.42063241 27.8097239,6.22015221 C26.8193277,6.81038831 25.7188876,7.23055638 24.5484194,7.46064841 C23.6080432,6.46024825 22.277511,5.84000015 20.8069228,5.84000015 C17.9757903,5.84000015 15.6748699,8.14092052 15.6748699,10.972053 C15.6748699,11.372213 15.72489,11.7623691 15.804922,12.1425212 C11.5432173,11.9324371 7.76170468,9.8816168 5.23069228,6.7803763 C4.79051621,7.54068042 4.54041617,8.42103257 4.54041617,9.36140872 C4.54041617,11.142121 5.45078031,12.7127493 6.82132853,13.6331174 C5.9809924,13.6031054 5.19067627,13.3730134 4.50040016,12.9928613 C4.50040016,13.0128693 4.50040016,13.0328773 4.50040016,13.0628893 C4.50040016,15.5438817 6.27110844,17.624714 8.61204482,18.0949021 C8.18187275,18.2149501 7.73169268,18.2749741 7.2615046,18.2749741 C6.93137255,18.2749741 6.6112445,18.2449621 6.30112045,18.1849381 C6.95138055,20.2257545 8.85214086,21.7063467 11.0930372,21.7463627 C9.33233293,23.1269149 7.12144858,23.947243 4.7204882,23.947243 C4.31032413,23.947243 3.90016006,23.927235 3.5,23.877215 C5.76090436,25.3177913 8.46198479,26.1681314 11.3531413,26.1681314" id="Shape" fill="#000000" fill-rule="nonzero"></path>
    </g>
</svg>