<?xml version="1.0" encoding="UTF-8" standalone="no"?>
<svg width="70px" height="13px" viewBox="0 0 70 13" version="1.1" xmlns="http://www.w3.org/2000/svg" xmlns:xlink="http://www.w3.org/1999/xlink">
    <!-- Generator: Sketch 3.7.1 (28215) - http://www.bohemiancoding.com/sketch -->
    <title>bottlesxo</title>
    <desc>Created with Sketch.</desc>
    <defs></defs>
    <g id="Page-1" stroke="none" stroke-width="1" fill="none" fill-rule="evenodd">
        <g id="bottlesxo" fill="#2221FF">
            <path d="M1.97988095,7.50617593 L2.0125,7.5391574 C2.89452381,6.51528705 4.23380953,5.16075926 5.70416665,5.16075926 C7.01083334,5.16075926 7.54988093,6.00323147 7.54988093,7.25821295 C7.54988093,9.90082407 4.5607143,12.9565463 1.97988095,12.9565463 C0.901785715,12.9565463 0.0358333333,12.3951389 0.0358333333,11.1892685 C0.0358333333,10.7763981 0.133809524,10.3631667 0.231904762,9.96702779 L2.38809524,1.27965741 L1.62023809,0.800703705 L1.66916667,0.503268519 C2.0125,0.470166667 2.45345238,0.387592593 2.92714286,0.288407407 C3.22107143,0.222685185 3.67833333,0.123379629 3.97261904,0.0243148148 L4.10345236,0.123379629 L1.97988095,7.50617593 L1.97988095,7.50617593 L1.97988095,7.50617593 Z M5.26285716,5.83796295 C3.23738095,5.83796295 1.24464286,9.27345372 1.24464286,11.1231852 C1.24464286,11.8002685 1.48988095,12.5268241 2.24107143,12.5268241 C4.25011906,12.5268241 6.24273808,8.87683333 6.24273808,6.99424074 C6.24273808,6.36650926 6.01428573,5.83796295 5.26285716,5.83796295 L5.26285716,5.83796295 L5.26285716,5.83796295 Z" id="Fill-1"></path>
            <path d="M12.7753572,5.16075926 C14.669881,5.16075926 15.9115476,6.61447221 15.9115476,8.51367593 C15.9115476,10.8424815 13.9514286,12.9565463 11.6154762,12.9565463 C9.65535716,12.9565463 8.39749998,11.635 8.39749998,9.63673147 C8.39749998,7.25821295 10.4069048,5.16075926 12.7753572,5.16075926 L12.7753572,5.16075926 L12.7753572,5.16075926 Z M11.5991667,12.5268241 C13.7063095,12.5268241 14.605,9.62024074 14.605,7.91904628 C14.605,6.74627779 14.1636905,5.59 12.7589286,5.59 C10.57,5.59 9.70452379,8.38138888 9.70452379,10.1983796 C9.70452379,11.4368704 10.1616667,12.5268241 11.5991667,12.5268241 L11.5991667,12.5268241 L11.5991667,12.5268241 Z" id="Fill-2"></path>
            <path d="M29.3013095,10.9579167 C29.285,11.024 29.2522619,11.1726574 29.2522619,11.2883333 C29.2522619,11.4697315 29.2685714,11.635 29.4644048,11.635 C29.7748809,11.635 30.542619,10.6111296 30.7222619,10.3631667 L30.9184524,10.7104352 C30.3794048,11.4202593 29.4644048,12.9565463 28.4516667,12.9565463 C27.9453571,12.9565463 27.847619,12.5764167 27.847619,12.1470555 C27.847619,11.8334907 27.912619,11.5359352 27.9616667,11.3379259 L30.2486905,1.36199074 L29.2685714,0.833444446 L29.3503571,0.602333333 C29.7095238,0.569351853 30.1341666,0.503268519 30.542619,0.420574074 C30.9839286,0.321388889 31.3758333,0.206194445 31.735,0.0905185186 L31.8494048,0.189583333 L29.3013095,10.9579167" id="Fill-3"></path>
            <path d="M37.9248809,10.8095 C36.8469048,12.0147685 35.6542857,12.9565463 34.2170238,12.9565463 C32.7142857,12.9565463 32.2078571,11.8334907 32.2078571,10.7268055 C32.2078571,8.08431481 34.5434524,5.16075926 36.9121428,5.16075926 C37.6470238,5.16075926 38.5130952,5.4250926 38.5130952,6.3334074 C38.5130952,8.57963888 35.3932143,9.35578705 33.6452381,9.52105554 C33.5471428,9.95029628 33.5145238,10.3631667 33.5145238,10.7928889 C33.5145238,11.6185093 34.0861905,12.0643611 34.8540476,12.0643611 C35.8013095,12.0643611 36.7651191,11.4368704 37.6960714,10.5284352 L37.9248809,10.8095 L37.9248809,10.8095 L37.9248809,10.8095 Z M37.2060714,6.39961112 C37.2060714,5.97025 36.9613095,5.68918519 36.5366667,5.68918519 C35.2788095,5.68918519 33.9880953,8.00162039 33.7270238,9.09169446 C35.2297619,8.99250926 37.2060714,8.19999074 37.2060714,6.39961112 L37.2060714,6.39961112 L37.2060714,6.39961112 Z" id="Fill-4"></path>
            <path d="M39.6872618,10.6442315 C39.8507141,11.5855278 40.9124999,11.9652963 41.7617857,11.9652963 C42.2194046,11.9652963 43.2158335,11.8499815 43.2158335,11.22225 C43.2158335,10.0827037 40.8307141,9.3721574 40.3570237,8.29869446 C40.2426191,8.06770372 40.2099999,7.78663888 40.2099999,7.5391574 C40.2099999,6.68007407 41.3534522,5.93714814 41.9905954,5.52427779 C42.4315477,5.24333333 42.6767858,5.16075926 43.1994046,5.16075926 C43.8688096,5.16075926 44.6203573,5.34263888 44.6203573,6.15164814 C44.6203573,6.35001853 44.4733335,6.89493519 44.2776189,6.89493519 L44.0814285,6.89493519 C43.9505954,6.89493519 43.9178573,6.77925926 43.8524999,6.6470926 C43.7058335,6.3334074 43.0523808,6.05282407 42.5132142,6.05282407 C41.9578573,6.05282407 41.287976,6.35001853 41.287976,6.99424074 C41.287976,8.3484074 44.1794046,8.71192593 44.1794046,10.4293704 C44.1794046,11.0735926 43.5423808,11.7838981 43.1177381,12.1966481 C42.5786904,12.7416852 41.925238,12.9565463 41.1740477,12.9565463 C40.3897618,12.9565463 39.0995238,12.7251945 39.0995238,11.6682222 C39.0995238,11.2883333 39.2953572,10.9744074 39.4751192,10.6442315 L39.6872618,10.6442315" id="Fill-5"></path>
            <path d="M45.5334526,12.2793426 L45.7951192,12.2793426 C46.1541668,12.2462407 46.3667858,12.2132593 46.7423811,12.0147685 C46.9058335,11.9321945 47.2159522,11.6516111 47.5429762,11.2883333 L51.2019047,7.15950926 L48.6207142,2.41896296 C48.2451192,1.72562963 47.902262,1.60995371 47.1015476,1.60995371 L46.8895239,1.60995371 L46.9713097,1.18059259 C47.6733334,1.21357407 48.2290478,1.19708333 48.947857,1.21357407 C49.1444049,1.21790741 49.0155951,1.22007407 49.210357,1.22007407 C49.6527383,1.22007407 49.9070236,1.57901852 50.0930954,1.95625926 C50.1369048,2.04509259 50.2921429,2.35083333 50.4830951,2.66692593 L52.2800002,6.00323147 L55.3017856,2.43533333 C55.4485713,2.25417593 56.2142856,1.21357407 56.859643,1.21357407 C57.4314284,1.21357407 57.4253572,1.18059259 58.0133334,1.18059259 L57.9316668,1.60995371 L57.6864287,1.60995371 C57.2783334,1.60995371 56.7228572,1.98960185 56.4453572,2.30376852 L52.5902382,6.54826853 L55.0729763,11.0569815 C55.5302382,11.8994537 55.7917856,12.2793426 56.4616668,12.2793426 L56.8372618,12.2793426 L56.7554764,12.7087037 C56.0692855,12.7087037 55.564643,12.6756019 54.8784526,12.6756019 C54.0213096,12.6756019 53.4885713,11.4202593 53.2927383,11.0569815 L51.5120239,7.73704628 L48.5720239,11.2883333 C48.4085716,11.4697315 47.5536905,12.6756019 47.2953573,12.6756019 C47.2440477,12.6756019 47.2441665,12.6758426 47.1930951,12.6759629 C46.6095239,12.6781296 46.0376192,12.6934167 45.4521427,12.7087037 L45.5334526,12.2793426" id="Fill-6"></path>
            <path d="M64.3484522,0.932629628 C67.2885715,0.932629628 69.9511904,3.01359259 69.9511904,6.1351574 C69.9511904,9.90082407 67.2067857,12.9565463 63.4174999,12.9565463 C60.1505953,12.9565463 57.8961905,10.8752222 57.8961905,7.50617593 C57.8961905,3.85606481 60.7713095,0.932629628 64.3484522,0.932629628 L64.3484522,0.932629628 L64.3484522,0.932629628 Z M63.4992858,12.428 C66.7169046,12.428 68.3503573,8.92642593 68.3503573,6.16813888 C68.3503573,3.69079629 67.1417858,1.46117593 64.3648811,1.46117593 C60.9834525,1.46117593 59.4969047,4.89666667 59.4969047,7.85272221 C59.4969047,10.4458611 60.6404764,12.428 63.4992858,12.428 L63.4992858,12.428 L63.4992858,12.428 Z" id="Fill-7"></path>
            <path d="M25.4901191,6.08592593 L27.0942857,6.08592593 L27.2934524,5.40872221 L25.6504762,5.40872221 L26.1428571,3.328 L24.8338095,3.328 L24.3569047,5.40872221 L22.7035714,5.40872221 L22.5042857,6.08592593 L24.2016666,6.08592593 L22.9976191,11.3379259 C22.9485714,11.5359352 22.8835714,11.8334907 22.8835714,12.1470555 C22.8835714,12.5764167 22.9813095,12.9565463 23.4876191,12.9565463 C24.5003572,12.9565463 25.4153572,11.4202593 25.9545238,10.7104352 L25.7582143,10.3631667 C25.5784524,10.6111296 24.8109524,11.635 24.5003572,11.635 C24.3045238,11.635 24.2882143,11.4697315 24.2882143,11.2883333 C24.2882143,11.1726574 24.3209524,11.024 24.3372619,10.9579167 L25.4901191,6.08592593" id="Fill-8"></path>
            <path d="M20.0522619,6.08592593 L21.6561905,6.08592593 L21.8554762,5.40872221 L20.212381,5.40872221 L20.7047619,3.328 L19.3959524,3.328 L18.9189286,5.40872221 L17.2654762,5.40872221 L17.0663095,6.08592593 L18.7635714,6.08592593 L17.5596429,11.3379259 C17.5105952,11.5359352 17.4455953,11.8334907 17.4455953,12.1470555 C17.4455953,12.5764167 17.5432143,12.9565463 18.0496429,12.9565463 C19.062381,12.9565463 19.9773809,11.4202593 20.5164286,10.7104352 L20.3202381,10.3631667 C20.1404762,10.6111296 19.3728572,11.635 19.062381,11.635 C18.8665476,11.635 18.8502381,11.4697315 18.8502381,11.2883333 C18.8502381,11.1726574 18.8828572,11.024 18.8992857,10.9579167 L20.0522619,6.08592593" id="Fill-9"></path>
        </g>
    </g>
</svg>