<?xml version="1.0" encoding="UTF-8"?>
<svg width="32px" height="32px" viewBox="0 0 32 32" version="1.1" xmlns="http://www.w3.org/2000/svg" xmlns:xlink="http://www.w3.org/1999/xlink">
    <!-- Generator: Sketch 50.2 (55047) - http://www.bohemiancoding.com/sketch -->
    <title>Github</title>
    <desc>Created with Sketch.</desc>
    <defs></defs>
    <g id="Github" stroke="none" stroke-width="1" fill="none" fill-rule="evenodd">
        <path d="M3.5,16.3003836 C3.5,21.823113 7.0812947,26.5078793 12.0484515,28.1607845 C12.6738543,28.2758893 12.9017619,27.8899045 12.9017619,27.5584026 C12.9017619,27.2621995 12.8910188,26.4756499 12.8848798,25.4328002 C9.40794684,26.1878879 8.67434544,23.756874 8.67434544,23.756874 C8.10572762,22.3126922 7.28618128,21.9282421 7.28618128,21.9282421 C6.15124774,21.1532029 7.37212622,21.1685502 7.37212622,21.1685502 C8.62676878,21.2567973 9.28670309,22.4569569 9.28670309,22.4569569 C10.4016851,24.3669296 12.2126677,23.8151938 12.9247828,23.4952024 C13.0383529,22.6879339 13.3614138,22.1369655 13.7182387,21.8246477 C10.9426778,21.5092605 8.02438687,20.4364836 8.02438687,15.6465882 C8.02438687,14.2822124 8.51166396,13.1656956 9.31125879,12.2924337 C9.18234139,11.9762792 8.75338408,10.7047545 9.43403726,8.98432114 C9.43403726,8.98432114 10.4830259,8.64821506 12.8710673,10.2658215 C13.867875,9.98803519 14.9375825,9.8499094 16.0003837,9.84453784 C17.0624175,9.8499094 18.1313576,9.98803519 19.1297001,10.2658215 C21.5162068,8.64821506 22.5636606,8.98432114 22.5636606,8.98432114 C23.2458486,10.7047545 22.8168912,11.9762792 22.6887412,12.2924337 C23.4898708,13.1656956 23.973311,14.2822124 23.973311,15.6465882 C23.973311,20.4487614 21.0504159,21.5054237 18.2664139,21.814672 C18.7145554,22.2006568 19.1143528,22.9634181 19.1143528,24.1298136 C19.1143528,25.8003683 19.0990055,27.1486294 19.0990055,27.5584026 C19.0990055,27.892974 19.3246109,28.2820283 19.9584548,28.1600171 C24.9217748,26.5032751 28.5,21.8215783 28.5,16.3003836 C28.5,9.3963964 22.9028362,3.79999995 15.998849,3.79999995 C9.09716382,3.79999995 3.5,9.3963964 3.5,16.3003836 Z" id="Fill-4" fill="#161514"></path>
    </g>
</svg>