<?xml version="1.0" encoding="UTF-8"?>
<svg width="92px" height="35px" viewBox="0 0 92 35" version="1.1" xmlns="http://www.w3.org/2000/svg" xmlns:xlink="http://www.w3.org/1999/xlink">
    <!-- Generator: Sketch 50.2 (55047) - http://www.bohemiancoding.com/sketch -->
    <title>header_logo</title>
    <desc>Created with Sketch.</desc>
    <defs></defs>
    <g id="header_logo" stroke="none" stroke-width="1" fill="none" fill-rule="evenodd">
        <g id="header-copy" fill="#F1FF1E">
            <polygon id="Path" transform="translate(17.000000, 17.500000) rotate(270.000000) translate(-17.000000, -17.500000) " points="0 1 34 34 0 34"></polygon>
        </g>
        <path d="M54.848,29.136 L51.176,29.136 L50.768,27.336 C51.968,27.432 53.12,27.48 54.2,27.48 C55.088,27.48 55.544,27.024 55.544,26.136 L55.544,7.752 L57.32,7.752 L57.32,26.592 C57.32,28.272 56.48,29.136 54.848,29.136 Z M49.112,13.32 L50.84,13.992 C49.688,18.792 48.176,22.44 46.304,24.936 L44.816,23.616 C46.736,21.072 48.152,17.64 49.112,13.32 Z M62.744,12.744 C64.64,17.04 66.104,20.784 67.112,23.976 L65.576,25.056 C64.496,21.648 63.032,17.88 61.184,13.728 L62.744,12.744 Z M69.752,22.416 L84.752,22.416 L84.752,24.096 L69.752,24.096 L69.752,22.416 Z M84.584,10.032 L71.624,10.032 L71.624,8.352 L86.552,8.352 L85.328,17.544 L90.104,17.544 C89.84,22.968 89.408,26.232 88.784,27.336 C88.136,28.416 86.792,28.968 84.776,28.968 C83.96,28.968 83.024,28.944 81.92,28.896 L81.464,27.24 C82.664,27.336 83.768,27.408 84.776,27.408 C86.024,27.408 86.864,27.048 87.296,26.328 C87.728,25.632 88.04,23.256 88.256,19.224 L73.112,19.224 L74.672,11.544 L76.424,11.712 L75.32,17.544 L83.504,17.544 L84.584,10.032 Z" id="小马" fill="#000000"></path>
    </g>
</svg>